<?xml version="1.0" standalone="no"?>
<!DOCTYPE svg PUBLIC "-//W3C//DTD SVG 20010904//EN"
 "http://www.w3.org/TR/2001/REC-SVG-20010904/DTD/svg10.dtd">
<svg version="1.0" xmlns="http://www.w3.org/2000/svg"
 width="100.000000pt" height="100.000000pt" viewBox="0 0 100.000000 100.000000"
 preserveAspectRatio="xMidYMid meet">
<metadata>
Created by potrace 1.14, written by Peter Selinger 2001-2017
</metadata>
<g transform="translate(0.000000,100.000000) scale(0.100000,-0.100000)"
fill="#000000" stroke="none">
<path d="M462 823 c-10 -16 -30 -48 -44 -73 -14 -25 -35 -61 -46 -80 -11 -19
-74 -130 -141 -246 -66 -116 -121 -218 -121 -226 0 -36 16 -38 390 -38 375 0
390 2 390 38 0 14 -311 565 -352 625 -11 15 -28 27 -38 27 -10 0 -27 -12 -38
-27z"/>
</g>
</svg>
